<svg xmlns="http://www.w3.org/2000/svg" width="80" height="80" viewBox="0 0 80 80">
  <defs>
    <style>
      .cls-1 {
        fill: #fff;
        fill-rule: evenodd;
      }
    </style>
  </defs>
  <path class="cls-1" d="M884,2102.5a7.5,7.5,0,0,1,7.5-7.5h5v-5h-5a12.5,12.5,0,0,0-12.5,12.5v5h5v-5Zm51.166,15.67L921.5,2127.5V2110a2.5,2.5,0,0,0-5,0v20c-0.105,2.16.99,4.68,3.833,4,0,0,16-10.67,16.012-10.68,1.454-1.04,2.244-2.55,1.3-4.04C936.9,2118.11,936.548,2118.17,935.166,2118.17ZM946.5,2090h-5v5h5a7.5,7.5,0,0,1,7.5,7.5v5h5v-5A12.5,12.5,0,0,0,946.5,2090Zm7.5,40a35,35,0,1,0-51.76,30.73L894,2170h7.5l6.711-6.71a34.888,34.888,0,0,0,21.577,0L936.5,2170H944l-8.237-9.27A34.99,34.99,0,0,0,954,2130Zm-35,30a30,30,0,1,1,30-30A30,30,0,0,1,919,2160Z" transform="translate(-879 -2090)"/>
</svg>
