<svg xmlns="http://www.w3.org/2000/svg" width="80" height="84.97" viewBox="0 0 80 84.97">
  <defs>
    <style>
      .cls-1 {
        fill: #fff;
        fill-rule: evenodd;
      }
    </style>
  </defs>
  <path class="cls-1" d="M317.667,2106.55v-18.5a2.714,2.714,0,0,0-2-2.81,5.218,5.218,0,0,0-3.334.17L243,2106.55v58.15a5.313,5.313,0,0,0,5.333,5.29h69.334A5.313,5.313,0,0,0,323,2164.7v-52.86A5.313,5.313,0,0,0,317.667,2106.55Zm-5.334-15.86v15.86h-52Zm5.334,50.22v2.65H307v-5.29h10.667v2.64Zm0-7.93H304.333a2.661,2.661,0,0,0-2.666,2.65v10.57a2.652,2.652,0,0,0,2.666,2.64h13.334v13.22A2.653,2.653,0,0,1,315,2164.7H251a2.652,2.652,0,0,1-2.667-2.64v-50.22H315a2.653,2.653,0,0,1,2.667,2.64v18.5Z" transform="translate(-243 -2085.03)"/>
</svg>
