<svg xmlns="http://www.w3.org/2000/svg" width="78" height="88" viewBox="0 0 78 88">
  <defs>
    <style>
      .cls-1 {
        fill: #fff;
        fill-rule: evenodd;
      }
    </style>
  </defs>
  <path class="cls-1" d="M621.5,2120.55H596.429a2.745,2.745,0,1,0,0,5.49H621.5A2.745,2.745,0,1,0,621.5,2120.55Zm0,13.73H596.429a2.75,2.75,0,1,0,0,5.5H621.5A2.75,2.75,0,1,0,621.5,2134.28Zm0-52.28H588.071c-5.893,0-11.143,5.34-11.143,11l-3.218.07c-5.895,0-10.71,5.27-10.71,10.93v55c0,5.66,5.249,11,11.143,11h41.785c5.894,0,11.143-5.34,11.143-11h2.786c5.894,0,11.143-5.34,11.143-11v-43.94Zm-5.572,82.5H574.143a5.807,5.807,0,0,1-5.572-5.5v-55a5.489,5.489,0,0,1,5.307-5.41l3.05-.09V2148c0,5.66,5.25,11,11.143,11H621.5A5.808,5.808,0,0,1,615.928,2164.5Zm19.5-16.5a5.806,5.806,0,0,1-5.571,5.5H588.071a5.806,5.806,0,0,1-5.571-5.5v-55a5.806,5.806,0,0,1,5.571-5.5h27.857c-0.044,6.33,0,11.07,0,11.07,0,5.71,5.209,10.93,11.143,10.93h8.357V2148Zm-8.357-44c-2.968,0-5.571-5.32-5.571-8.18v-8.24L635.428,2104h-8.357Z" transform="translate(-563 -2082)"/>
</svg>
