<svg xmlns="http://www.w3.org/2000/svg" width="18" height="26" viewBox="0 0 18 26">
  <defs>
    <style>
      .cls-1 {
        fill: #3d5279;
        fill-rule: evenodd;
      }
    </style>
  </defs>
  <path class="cls-1" d="M489,60a1.184,1.184,0,0,1-.994-0.54q-0.721-1.113-1.393-2.138C482.631,51.227,480,47.2,480,42.986a9,9,0,0,1,18,0c0,4.214-2.631,8.241-6.613,14.336q-0.671,1.027-1.393,2.138A1.185,1.185,0,0,1,489,60Zm0-23.636a6.636,6.636,0,0,0-6.633,6.622c0,3.512,2.478,7.3,6.229,13.044l0.4,0.619,0.4-.619c3.751-5.74,6.229-9.533,6.229-13.044A6.636,6.636,0,0,0,489,36.364Zm0,10.873a4.018,4.018,0,1,1,4.024-4.018A4.026,4.026,0,0,1,489,47.236Zm0-5.673a1.655,1.655,0,1,0,1.657,1.655A1.658,1.658,0,0,0,489,41.563Z" transform="translate(-480 -34)"/>
</svg>
