<?xml version="1.0" encoding="utf-8"?>
<!-- Generator: Adobe Illustrator 20.0.0, SVG Export Plug-In . SVG Version: 6.00 Build 0)  -->
<svg version="1.1" id="Layer_1" xmlns="http://www.w3.org/2000/svg" xmlns:xlink="http://www.w3.org/1999/xlink" x="0px" y="0px"
	 viewBox="0 0 20 15" style="enable-background:new 0 0 20 15;" xml:space="preserve" width="20" height="15">
<style type="text/css">
	.st0{fill:#3E537A;}
</style>
<path class="st0" d="M20,0.9c0-0.1,0-0.2,0-0.2c0-0.1-0.1-0.1-0.1-0.2c0,0,0-0.1-0.1-0.1c0,0,0,0,0,0c-0.1-0.1-0.1-0.1-0.2-0.1
	c0,0-0.1-0.1-0.1-0.1c-0.1,0-0.1,0-0.2,0c-0.1,0-0.2,0-0.2,0c0,0,0,0,0,0H1.1c0,0,0,0,0,0C1,0,0.9,0,0.8,0.1c-0.1,0-0.1,0-0.2,0
	c0,0-0.1,0.1-0.1,0.1c-0.1,0-0.1,0.1-0.2,0.1c0,0,0,0,0,0c0,0-0.1,0.1-0.1,0.1c0,0.1-0.1,0.1-0.1,0.2c0,0.1,0,0.2,0,0.2
	C0,1,0,1,0,1.1v12.9C0,14.5,0.5,15,1.1,15h17.8c0.6,0,1.1-0.5,1.1-1.1V1.1C20,1,20,1,20,0.9z M16.2,2.1L10,7.8L3.8,2.1H16.2z
	 M2.1,12.9V3.5L9.3,10c0.2,0.2,0.5,0.3,0.7,0.3s0.5-0.1,0.7-0.3l7.1-6.5v9.4H2.1z"/>
</svg>
