<svg xmlns="http://www.w3.org/2000/svg" width="24" height="24" viewBox="0 0 24 24">
  <defs>
    <style>
      .cls-1 {
        fill: #3d5279;
        fill-rule: evenodd;
      }
    </style>
  </defs>
  <path class="cls-1" d="M302,60a12,12,0,1,1,12-12A12.014,12.014,0,0,1,302,60Zm0-21.818A9.818,9.818,0,1,0,311.818,48,9.829,9.829,0,0,0,302,38.181Zm6.545,10.909H302A1.09,1.09,0,0,1,300.909,48V41.454a1.091,1.091,0,0,1,2.182,0v5.455h5.454A1.091,1.091,0,1,1,308.545,49.091Z" transform="translate(-290 -36)"/>
</svg>
