<svg xmlns="http://www.w3.org/2000/svg" width="18" height="18" viewBox="0 0 18 18">
  <defs>
    <style>
      .cls-1 {
        fill: #7b519d;
        fill-rule: evenodd;
      }
    </style>
  </defs>
  <path class="cls-1" d="M1054.7,53a3.271,3.271,0,0,0-1.09.343,3.1,3.1,0,0,0-1.57,2.177c-0.04.195-.04,0.457-0.04,6.513v6.311l0.04,0.2a3.092,3.092,0,0,0,2.42,2.418l0.2,0.044h12.68l0.2-.044a3.092,3.092,0,0,0,2.42-2.418l0.04-.2V62.03c0-6.056,0-6.318-.04-6.513a2.735,2.735,0,0,0-.29-0.857,3.051,3.051,0,0,0-2.4-1.667C1067.03,52.968,1054.93,52.97,1054.7,53Zm6.88,3.2a5.361,5.361,0,0,1,1.79.53,4.857,4.857,0,0,1,1.44,1.039,4.65,4.65,0,0,1,.98,1.351,6.451,6.451,0,0,1,.63,2.642,0.654,0.654,0,0,1-.08.509,0.349,0.349,0,0,1-.57-0.054,0.808,0.808,0,0,1-.06-0.4,6.744,6.744,0,0,0-.11-1,4.572,4.572,0,0,0-1.78-2.975,4.7,4.7,0,0,0-2.71-.958,0.876,0.876,0,0,1-.52-0.1,0.379,0.379,0,0,1-.01-0.539,0.545,0.545,0,0,1,.47-0.085C1061.21,56.167,1061.45,56.186,1061.58,56.2Zm-4.4.208a1.232,1.232,0,0,1,.23.116,9.169,9.169,0,0,1,1.72,2.2,1.222,1.222,0,0,1,.19.852,1.366,1.366,0,0,1-.62.7,4.026,4.026,0,0,0-.38.341,0.889,0.889,0,0,0-.12.436,3.251,3.251,0,0,0,.48,1.355,5.618,5.618,0,0,0,.97,1.139,5.3,5.3,0,0,0,1.27.9,1.4,1.4,0,0,0,1.16.235,1.02,1.02,0,0,0,.15-0.085c0.02-.017.17-0.2,0.33-0.4a1.143,1.143,0,0,1,.6-0.53,1.037,1.037,0,0,1,.83.075c0.21,0.11.67,0.4,0.97,0.605a15.846,15.846,0,0,1,1.35,1.1,0.888,0.888,0,0,1,.1.911,4.214,4.214,0,0,1-1.09,1.353,1.538,1.538,0,0,1-.92.384,1.352,1.352,0,0,1-.73-0.152,15.232,15.232,0,0,1-6.58-5.068,14.369,14.369,0,0,1-2.05-3.719,1.534,1.534,0,0,1-.06-1.459,4.42,4.42,0,0,1,.81-0.786,2.647,2.647,0,0,1,.91-0.545A1.046,1.046,0,0,1,1057.18,56.41Zm4.54,1.189a3.74,3.74,0,0,1,2.67,1.6A3.855,3.855,0,0,1,1065,60.9a4.166,4.166,0,0,1,0,.717,0.476,0.476,0,0,1-.18.191,0.422,0.422,0,0,1-.32-0.011,0.469,0.469,0,0,1-.19-0.518,3.016,3.016,0,0,0-.36-1.434,2.89,2.89,0,0,0-1.07-1.12,3.688,3.688,0,0,0-1.48-.445,0.5,0.5,0,0,1-.37-0.137,0.354,0.354,0,0,1-.03-0.436C1061.1,57.554,1061.26,57.529,1061.72,57.6Zm0.41,1.454a1.849,1.849,0,0,1,.92.459,1.92,1.92,0,0,1,.57,1.195,0.59,0.59,0,0,1-.09.59,0.372,0.372,0,0,1-.45.009,0.408,0.408,0,0,1-.15-0.341,1.7,1.7,0,0,0-.15-0.62,1.082,1.082,0,0,0-.97-0.615,0.462,0.462,0,0,1-.38-0.146,0.361,0.361,0,0,1,.1-0.54,0.439,0.439,0,0,1,.27-0.031A2.7,2.7,0,0,1,1062.13,59.053Z" transform="translate(-1052 -53)"/>
</svg>
