<svg xmlns="http://www.w3.org/2000/svg" width="18" height="18" viewBox="0 0 18 18">
  <defs>
    <style>
      .cls-1 {
        fill: #2bb826;
        fill-rule: evenodd;
      }
    </style>
  </defs>
  <path class="cls-1" d="M1061.2,36.456a5.366,5.366,0,0,0-4.54,8.217l0.13,0.2-0.55,1.979,2.03-.532,0.2,0.116a5.352,5.352,0,0,0,2.73.747h0A5.365,5.365,0,1,0,1061.2,36.456Zm3.16,7.669a1.654,1.654,0,0,1-1.09.767,2.181,2.181,0,0,1-1.01-.064,8.392,8.392,0,0,1-.92-0.34,7.2,7.2,0,0,1-2.76-2.434,3.138,3.138,0,0,1-.66-1.668,1.8,1.8,0,0,1,.57-1.345,0.592,0.592,0,0,1,.43-0.2c0.11,0,.21,0,0.31.006a0.318,0.318,0,0,1,.36.277c0.13,0.323.46,1.116,0.5,1.2a0.309,0.309,0,0,1,.01.283,1.007,1.007,0,0,1-.16.269c-0.08.094-.17,0.21-0.24,0.283a0.23,0.23,0,0,0-.07.329,4.638,4.638,0,0,0,.89,1.117,4.465,4.465,0,0,0,1.3.8,0.247,0.247,0,0,0,.35-0.04c0.09-.108.4-0.471,0.51-0.632a0.25,0.25,0,0,1,.36-0.081c0.15,0.054.94,0.444,1.11,0.524a0.769,0.769,0,0,1,.3.188A1.2,1.2,0,0,1,1064.36,44.124Zm5.63-7.033a8.37,8.37,0,0,0-.09-1.154,3.56,3.56,0,0,0-.33-0.98,3.426,3.426,0,0,0-.64-0.884,3.388,3.388,0,0,0-.88-0.643,3.874,3.874,0,0,0-.98-0.326,9.575,9.575,0,0,0-1.16-.095C1065.74,33,1065.53,33,1065.43,33h-8.86c-0.1,0-.31,0-0.48.009a9.391,9.391,0,0,0-1.15.093,3.835,3.835,0,0,0-.98.326,3.606,3.606,0,0,0-.89.64,3.674,3.674,0,0,0-.64.885,3.891,3.891,0,0,0-.32.974,8.3,8.3,0,0,0-.1,1.163c-0.01.165-.01,0.379-0.01,0.477v8.863c0,0.1,0,.312.01,0.477a8.371,8.371,0,0,0,.09,1.154,3.56,3.56,0,0,0,.33.98,3.421,3.421,0,0,0,.64.885,3.381,3.381,0,0,0,.88.643,3.882,3.882,0,0,0,.98.326,9.575,9.575,0,0,0,1.16.095c0.17,0.006.38,0.009,0.48,0.009l8.86,0c0.1,0,.31,0,0.48-0.009a9.42,9.42,0,0,0,1.15-.093,3.843,3.843,0,0,0,.98-0.326,3.613,3.613,0,0,0,.89-0.64,3.672,3.672,0,0,0,.64-0.886,3.885,3.885,0,0,0,.32-0.974,8.313,8.313,0,0,0,.1-1.163c0.01-.165.01-0.379,0.01-0.477V37.569C1070,37.471,1070,37.257,1069.99,37.092Zm-8.79,11.184h0a6.426,6.426,0,0,1-3.08-.785l-3.43.9,0.92-3.344a6.39,6.39,0,0,1-.86-3.226A6.455,6.455,0,1,1,1061.2,48.276Z" transform="translate(-1052 -33)"/>
</svg>
